# xmcd
#
# Track frame offsets: 
#        150
#        21082
#        43970
#        68082
#        90072
#        108697
#        129757
#        150100
#        177542
#        197617
#
# Disc length: 2894 seconds
#
# Revision: 3
# Processed by: cddbd v1.5.2PL0 Copyright (c) Steve Scherf et al.
# Submitted via: ExactAudioCopy v1.0b3
#
DISCID=740b4c0a
DTITLE=Khanh Ly - Tuong Rang Da Quen
DYEAR=1991
DGENRE=Blues
TTITLE0=Tuong rang da quen
TTITLE1=Diem xua
TTITLE2=Tieng coi trong suong dem
TTITLE3=Chieu To Chau
TTITLE4=Doan lu nhac
TTITLE5=Rung cay trut la
TTITLE6=Ban tay di vang
TTITLE7=Em con nho mua Xuan
TTITLE8=Tren dinh mua dong
TTITLE9=Nhu giot sau roi
EXTD=
EXTT0=
EXTT1=
EXTT2=
EXTT3=
EXTT4=
EXTT5=
EXTT6=
EXTT7=
EXTT8=
EXTT9=
PLAYORDER=
